<svg xmlns="http://www.w3.org/2000/svg" version="1.1" xmlns:xlink="http://www.w3.org/1999/xlink" xmlns:svgjs="http://svgjs.dev/svgjs" width="1440" height="500" preserveAspectRatio="none" viewBox="0 0 1440 500">
    <g mask="url(&quot;#SvgjsMask1014&quot;)" fill="none">
        <rect width="1440" height="500" x="0" y="0" fill="rgba(236, 239, 244, 1)"></rect>
        <path d="M1464 500L0 500 L0 265.48Q79.86 225.34, 120 305.19Q169.75 282.94, 192 332.7Q198.33 267.03, 264 273.36Q315.08 204.44, 384 255.52Q474.66 226.19, 504 316.85Q525.46 266.31, 576 287.77Q594.19 233.96, 648 252.15Q717.67 201.82, 768 271.5Q843.99 227.49, 888 303.48Q898.5 241.98, 960 252.47Q1005.04 225.51, 1032 270.55Q1120.21 238.76, 1152 326.98Q1169.7 272.69, 1224 290.39Q1294.86 241.25, 1344 312.11Q1412.49 260.6, 1464 329.08z" fill="#182f5d"></path>
        <path d="M1464 500L0 500 L0 364.59Q11.78 304.37, 72 316.15Q142.02 266.17, 192 336.19Q258.66 330.85, 264 397.51Q283.13 344.64, 336 363.77Q351.1 306.87, 408 321.96Q456.7 298.66, 480 347.36Q525.88 321.25, 552 367.13Q620.79 315.92, 672 384.71Q692.19 332.9, 744 353.1Q763.92 301.02, 816 320.95Q903.02 287.97, 936 374.99Q1001.35 320.34, 1056 385.68Q1057.37 315.05, 1128 316.41Q1190 306.42, 1200 368.42Q1220.58 317, 1272 337.57Q1325.43 271, 1392 324.43Q1461.85 322.28, 1464 392.13z" fill="#25467d"></path>
        <path d="M1488 500L0 500 L0 455.94Q60.52 396.46, 120 456.98Q172.5 389.48, 240 441.98Q259.44 389.42, 312 408.85Q339.63 364.49, 384 392.12Q441.06 377.18, 456 434.24Q478.24 384.48, 528 406.71Q581.88 340.59, 648 394.47Q677.07 351.54, 720 380.6Q783.38 371.99, 792 435.37Q862.62 385.99, 912 456.61Q920.98 393.59, 984 402.57Q1053.33 351.89, 1104 421.22Q1171.74 368.97, 1224 436.71Q1265.79 358.5, 1344 400.29Q1369.55 353.84, 1416 379.38Q1468.22 359.61, 1488 411.83z" fill="#356cb1"></path>
        <path d="M1560 500L0 500 L0 488.85Q69.36 438.21, 120 507.57Q165.12 432.69, 240 477.81Q292.73 410.54, 360 463.27Q440.49 423.75, 480 504.24Q512.39 416.63, 600 449.03Q672.24 401.27, 720 473.51Q771.55 453.06, 792 504.62Q842.06 434.69, 912 484.75Q950.29 403.04, 1032 441.33Q1084.46 421.79, 1104 474.26Q1158.76 409.02, 1224 463.78Q1283.86 451.63, 1296 511.49Q1300.45 443.94, 1368 448.4Q1398.85 407.25, 1440 438.1Q1524.01 402.12, 1560 486.13z" fill="white"></path>
    </g>
    <defs>
        <mask id="SvgjsMask1014">
            <rect width="1440" height="500" fill="#ffffff"></rect>
        </mask>
    </defs>
</svg>